<svg xmlns="http://www.w3.org/2000/svg"  viewBox="0 0 64 64" width="512px" height="512px"><linearGradient id="52rRsoZXBRg8MSsaofLQWa" x1="30.99" x2="30.99" y1="6" y2="58.646" gradientUnits="userSpaceOnUse" spreadMethod="reflect"><stop offset="0" stop-color="#1a6dff"/><stop offset="1" stop-color="#c822ff"/></linearGradient><path fill="url(#52rRsoZXBRg8MSsaofLQWa)" d="M42.25,35.25c-2.59-0.88-5.62-1.22-8.76-1.25c-1.1,0-2.2,0.12-3.49,0.3 c-3.72,0.52-6.66,2.27-9.3,5.15c-0.93,1.02-0.92,2.13-0.05,2.98c0.41,0.41,0.79,0.57,1.16,0.57c0.53,0,1.02-0.33,1.52-0.78 c1.01-0.91,2.21-1.7,3.55-2.1c0.18-0.05,0.38-0.12,0.56-0.12c0.13,0,0.26,0.03,0.38,0.12c0.36,0.29,0.03,0.62-0.07,0.88 c-0.57,1.5-1,3.25-0.5,5c0.85,3.38,3.24,5.02,6.59,5.02c0.57,0,1.16-0.05,1.78-0.14c3.28-0.5,5.57-2.82,5.37-6.38 c-0.05-0.93-0.39-1.54-1.07-2.17c-0.24-0.22-0.51-0.33-0.8-0.33c-0.16,0-0.33,0.04-0.5,0.11C38.25,42.25,38,42.62,38,43.12 C37.96,43.68,37.75,44,37.12,44C36.25,44,36,43.38,36,42.5c0-1.25,1-1.99,1.88-2.25c0.43-0.13,0.9-0.2,1.38-0.2 c2.63,0,5.56,1.98,5.74,5.07c0.25,4.24-2.42,7.22-7,8.37C36.57,53.85,35.13,54,33.69,54c-1.76,0-3.53-0.22-5.27-0.55 c-6.37-1.2-10.59-3.88-10.42-11.83c0.07-3.22-0.08-6.55-0.62-9.74c-0.37-2.16-1.73-3.39-3.9-3.81c-0.23-0.05-0.43-0.07-0.6-0.07 c-0.79,0-0.98,0.48-0.83,1.45c0.74,4.72,0.74,9.49,0.86,14.25c0.16,6.47,3.73,11.46,9.82,13.59C26.05,58.45,29.44,59,32.87,59 c1.58,0,3.17-0.12,4.77-0.35c3.5-0.5,6.92-2.31,9.34-5.03C52.5,47.38,50.09,37.92,42.25,35.25z M45.49,52.29 c-2.1,2.35-5.06,3.94-8.13,4.38C35.85,56.89,34.34,57,32.87,57c-3.26,0-6.45-0.54-9.48-1.6c-5.25-1.83-8.35-6.12-8.49-11.75 c-0.01-0.66-0.02-1.31-0.04-1.97c-0.08-3.69-0.16-7.5-0.65-11.29c0.68,0.37,1.05,0.94,1.2,1.82c0.46,2.76,0.66,5.91,0.59,9.37 c-0.22,10.2,6.32,12.75,12.05,13.83c2.09,0.4,3.94,0.59,5.64,0.59c1.71,0,3.28-0.19,4.8-0.57c5.63-1.41,8.81-5.31,8.51-10.42 c-0.26-4.3-4.22-6.96-7.74-6.96c-0.68,0-1.35,0.1-1.97,0.29c-2,0.61-3.29,2.24-3.29,4.16c0,2.58,1.68,3.5,3.12,3.5 c0.74,0,1.38-0.22,1.86-0.61c-0.23,2.68-2.58,3.35-3.65,3.51c-0.53,0.08-1.03,0.12-1.49,0.12c-2.57,0-4.05-1.12-4.65-3.51 l-0.01-0.03l-0.01-0.03c-0.28-0.99-0.14-2.16,0.43-3.68c0.28-0.51,0.38-0.96,0.38-1.36c0-1.05-0.73-1.7-0.92-1.85 C28.6,38.19,28.04,38,27.44,38c-0.46,0-0.83,0.11-1.07,0.19l-0.06,0.01c-1.06,0.32-2.1,0.84-3.11,1.56 c2.14-1.99,4.42-3.11,7.08-3.48C31.5,36.11,32.51,36,33.47,36c3.27,0.03,6,0.42,8.13,1.14c3.06,1.04,5.27,3.37,6.07,6.38 C48.48,46.6,47.69,49.8,45.49,52.29z"/><linearGradient id="52rRsoZXBRg8MSsaofLQWb" x1="35.435" x2="35.435" y1="36" y2="49.02" gradientUnits="userSpaceOnUse" spreadMethod="reflect"><stop offset="0" stop-color="#6dc7ff"/><stop offset="1" stop-color="#e6abff"/></linearGradient><path fill="url(#52rRsoZXBRg8MSsaofLQWb)" d="M44.731,40.25c-1.509-1.412-3.555-2.2-5.471-2.2c-0.68,0-1.35,0.1-1.97,0.29 c-2,0.61-3.29,2.24-3.29,4.16c0,2.58,1.68,3.5,3.12,3.5c0.74,0,1.38-0.22,1.86-0.61c-0.23,2.68-2.58,3.35-3.65,3.51 c-0.53,0.08-1.03,0.12-1.49,0.12c-2.57,0-4.05-1.12-4.65-3.51l-0.01-0.03l-0.01-0.03c-0.28-0.99-0.14-2.16,0.43-3.68 c0.28-0.51,0.38-0.96,0.38-1.36c0-1.05-0.73-1.7-0.92-1.85C28.6,38.19,28.04,38,27.44,38c-0.46,0-0.83,0.11-1.07,0.19l-0.06,0.01 c-1.06,0.32-2.1,0.84-3.11,1.56c2.14-1.99,4.42-3.11,7.08-3.48C31.5,36.11,32.51,36,33.47,36c3.27,0.03,6,0.42,8.13,1.14 c3.06,1.04,5.27,3.37,6.07,6.38C47,42,46.375,41.25,44.731,40.25z"/><linearGradient id="52rRsoZXBRg8MSsaofLQWc" x1="30.492" x2="30.492" y1="6" y2="58.646" gradientUnits="userSpaceOnUse" spreadMethod="reflect"><stop offset="0" stop-color="#1a6dff"/><stop offset="1" stop-color="#c822ff"/></linearGradient><path fill="url(#52rRsoZXBRg8MSsaofLQWc)" d="M29.886,8c0.546,0,0.639,0.154,0.738,0.317c0.24,0.396,0.369,0.901,0.418,1.638 c0.27,4.118,0.51,8.203,0.742,12.153l0.212,3.598c-0.038,0.723-0.041,1.375-0.044,1.954c-0.004,0.927-0.008,1.661-0.141,2.338 C31.784,30,31.756,30,31.729,30c-0.097,0-0.17-0.006-0.223-0.014c-0.562-2.058-0.82-4.257-1.069-6.385 c-0.352-3.001-0.666-6.065-0.97-9.028c-0.149-1.455-0.298-2.91-0.453-4.365c-0.07-0.663-0.02-1.26,0.153-1.824 c0.092-0.299,0.133-0.349,0.491-0.376C29.736,8.003,29.812,8,29.886,8 M29.886,6c-0.123,0-0.249,0.005-0.377,0.015 c-1.234,0.093-1.935,0.749-2.253,1.783c-0.264,0.859-0.324,1.733-0.23,2.622c0.474,4.471,0.901,8.948,1.425,13.415 c0.266,2.274,0.535,4.557,1.155,6.782C29.884,31.614,30.682,32,31.729,32c0.073,0,0.148-0.002,0.224-0.006 c1.107-0.054,1.618-0.613,1.813-1.573c0.285-1.406,0.123-2.816,0.234-4.719c-0.295-4.966-0.603-10.425-0.961-15.879 c-0.058-0.868-0.22-1.747-0.705-2.546C31.775,6.359,30.931,6,29.886,6L29.886,6z"/><linearGradient id="52rRsoZXBRg8MSsaofLQWd" x1="21" x2="21" y1="6" y2="58.646" gradientUnits="userSpaceOnUse" spreadMethod="reflect"><stop offset="0" stop-color="#1a6dff"/><stop offset="1" stop-color="#c822ff"/></linearGradient><path fill="url(#52rRsoZXBRg8MSsaofLQWd)" d="M18.911,12c0.435,0,0.762,0.244,0.97,0.726c0.623,1.44,0.931,3.007,1.257,4.665 c0.137,0.697,0.279,1.419,0.447,2.139c0.802,3.438,1.706,7.436,2.3,11.388c0.051,0.338,0.088,0.684,0.11,1.025 c0.001,0.016,0.002,0.031,0.003,0.046C23.945,31.996,23.893,32,23.845,32c-0.277,0-0.346-0.115-0.398-0.242 c-1.083-2.665-1.994-5.338-2.708-7.944c-0.798-2.918-1.57-5.899-2.317-8.783L18.181,14.1c-0.082-0.317-0.135-0.676-0.169-0.914 c-0.004-0.025-0.007-0.049-0.011-0.072c0.012-0.97,0.143-0.994,0.676-1.092C18.757,12.007,18.836,12,18.911,12 M18.911,10 c-0.195,0-0.394,0.018-0.594,0.055C16.71,10.35,16.001,11.216,16,13.264c0.036,0.202,0.1,0.778,0.245,1.338 c0.842,3.249,1.679,6.499,2.565,9.739c0.758,2.766,1.696,5.49,2.784,8.169C21.985,33.474,22.841,34,23.845,34 c0.197,0,0.4-0.02,0.606-0.061c1.302-0.26,1.607-1.092,1.541-2.124c-0.026-0.399-0.069-0.798-0.128-1.195 c-0.582-3.878-1.437-7.716-2.33-11.544c-0.558-2.389-0.822-4.846-1.816-7.143C21.175,10.679,20.107,10,18.911,10L18.911,10z"/><linearGradient id="52rRsoZXBRg8MSsaofLQWe" x1="40" x2="40" y1="6" y2="58.646" gradientUnits="userSpaceOnUse" spreadMethod="reflect"><stop offset="0" stop-color="#1a6dff"/><stop offset="1" stop-color="#c822ff"/></linearGradient><path fill="url(#52rRsoZXBRg8MSsaofLQWe)" d="M41.006,11L41.006,11c0.041,0,0.082,0.002,0.124,0.005c0.878,0.071,0.875,0.328,0.87,0.684 c-0.016,1.259-0.29,2.555-0.581,3.926c-0.132,0.624-0.264,1.248-0.374,1.874c-0.1,0.571-0.199,1.142-0.298,1.713 c-0.607,3.517-1.235,7.153-2.289,10.607c-0.024,0.079-0.046,0.14-0.064,0.187c-0.037-0.003-0.083-0.008-0.137-0.016 c-0.107-0.017-0.19-0.036-0.253-0.053c0.008-0.237,0.005-0.467,0.001-0.638c0.167-3.851,0.722-7.638,1.26-11.3 c0.161-1.097,0.322-2.191,0.472-3.285l0.021-0.155c0.14-1.017,0.273-1.978,0.531-2.874C40.484,11,40.761,11,41.006,11 M41.006,9 c-1.268,0-2.235,0.717-2.638,2.123c-0.312,1.082-0.458,2.2-0.611,3.307c-0.669,4.861-1.535,9.708-1.751,14.829 c0,0.078,0.011,0.38-0.003,0.68c-0.05,1.107,0.553,1.798,1.944,2.016C38.138,31.986,38.314,32,38.477,32 c1.186,0,1.635-0.755,1.895-1.607c1.262-4.132,1.904-8.352,2.644-12.557c0.359-2.037,0.958-4.053,0.985-6.121 c0.021-1.609-0.983-2.563-2.708-2.703C41.195,9.004,41.099,9,41.006,9L41.006,9z"/><linearGradient id="52rRsoZXBRg8MSsaofLQWf" x1="47.5" x2="47.5" y1="6" y2="58.646" gradientUnits="userSpaceOnUse" spreadMethod="reflect"><stop offset="0" stop-color="#1a6dff"/><stop offset="1" stop-color="#c822ff"/></linearGradient><path fill="url(#52rRsoZXBRg8MSsaofLQWf)" d="M49.384,19c0.042,0,0.115,0.005,0.223,0.028c0.179,0.038,0.3,0.079,0.378,0.112 c-0.12,0.721-0.441,1.496-0.78,2.314c-0.241,0.581-0.49,1.183-0.695,1.826c-0.78,2.446-1.772,5.294-3.244,8.025 c0.532-2.042,1.167-4.103,1.784-6.105c0.479-1.554,0.973-3.16,1.421-4.758c0.093-0.33,0.266-0.692,0.501-1.048 C49.231,19,49.327,19,49.384,19 M49.384,17c-1.002,0-1.615,0.585-2.081,1.292c-0.333,0.505-0.6,1.053-0.756,1.607 c-1.109,3.957-2.479,7.867-3.456,11.85c-0.263,1.073,0.003,1.802,1.312,2.153C44.654,33.97,44.877,34,45.076,34 c0.934,0,1.355-0.67,1.736-1.353c1.575-2.826,2.654-5.778,3.605-8.76c0.493-1.546,1.358-3.013,1.571-4.612 c0.114-1.167-0.555-1.903-1.963-2.203C49.794,17.023,49.581,17,49.384,17L49.384,17z"/></svg>